<svg xmlns="http://www.w3.org/2000/svg" width="324" height="216" viewBox="0 0 324 216"><g transform="translate(-1566 -1224)"><path d="M1890,1260.03a36.032,36.032,0,0,1-20.33,32.38c-.08.03-.15.07-.23.1-.71.3-1.43.61-2.13.93a90,90,0,0,0-50.5,101.4c.16.61.3,1.22.43,1.83.01.04.02.09.03.13a35.992,35.992,0,1,1-50.94-25.21c.79-.38,1.6-.73,2.42-1.06a89.985,89.985,0,0,0,50.44-101.35v-.02c-.18-.7-.35-1.4-.49-2.11a36,36,0,1,1,71.3-7.02Z" fill="aqua"/><path d="M1633.17,1386a36,36,0,1,1-58.14-5.84c.01-.01.01-.02.03-.03q.975-1.125,2.07-2.16c.01-.01.03-.02.04-.04a68.205,68.205,0,0,0,8.63-80.02,67.188,67.188,0,0,0-8.83-12.03l-.07-.07c-.64-.63-1.27-1.28-1.86-1.96-.02-.01-.03-.03-.04-.04a36,36,0,1,1,53.97.03c-.01.01-.01.02-.03.03q-.975,1.125-2.07,2.16c-.01.01-.03.02-.04.04a68.205,68.205,0,0,0-8.63,80.02,67.188,67.188,0,0,0,8.83,12.03l.07.07c.64.63,1.27,1.28,1.86,1.96.02.01.03.03.04.04A36.2,36.2,0,0,1,1633.17,1386Z" fill="#fff"/><path d="M1728,1291.17a36,36,0,1,1,5.84-58.14c.01.01.02.01.03.03q1.125.975,2.16,2.07c.01.01.02.03.04.04a68.205,68.205,0,0,0,80.02,8.63,67.188,67.188,0,0,0,12.03-8.83l.07-.07c.63-.64,1.28-1.27,1.96-1.86.01-.02.03-.03.04-.04a36,36,0,1,1-.03,53.97c-.01-.01-.02-.01-.03-.03q-1.125-.975-2.16-2.07c-.01-.01-.02-.03-.04-.04a68.205,68.205,0,0,0-80.02-8.63,67.188,67.188,0,0,0-12.03,8.83l-.07.07c-.63.64-1.28,1.27-1.96,1.86-.01.02-.03.03-.04.04A36.2,36.2,0,0,1,1728,1291.17Z" fill="aqua"/></g></svg>