<svg xmlns="http://www.w3.org/2000/svg" width="1077.085" height="134.863" viewBox="0 0 1077.085 134.863"><g transform="translate(-504 -2232)"><g transform="translate(504 2232)"><path d="M773.909,1966.5a22.5,22.5,0,0,1-12.693,20.217c-.05.019-.094.044-.144.062-.443.187-.893.381-1.33.581a56.193,56.193,0,0,0-31.53,63.311c.1.381.187.761.268,1.143.006.025.013.056.019.081a22.472,22.472,0,1,1-31.805-15.74c.493-.237,1-.456,1.511-.662a56.184,56.184,0,0,0,31.493-63.279v-.013c-.112-.437-.219-.874-.306-1.317a22.476,22.476,0,1,1,44.517-4.383Z" transform="translate(-571.615 -1944)" fill="aqua"/><path d="M545.939,2045.147a22.476,22.476,0,1,1-36.3-3.646c.006-.006.006-.013.019-.019q.609-.7,1.292-1.349c.006-.006.019-.012.025-.025a42.584,42.584,0,0,0,5.388-49.962,41.945,41.945,0,0,0-5.513-7.511l-.044-.044c-.4-.393-.793-.8-1.161-1.224-.012-.006-.019-.019-.025-.025a22.478,22.478,0,1,1,33.7.019c-.006.006-.006.012-.019.019q-.609.7-1.292,1.349c-.006.006-.019.012-.025.025a42.585,42.585,0,0,0-5.388,49.962,41.96,41.96,0,0,0,5.513,7.511l.044.043c.4.394.793.8,1.161,1.224.012.006.019.019.025.025A22.617,22.617,0,0,1,545.939,2045.147Z" transform="translate(-504 -1944)" fill="#fff"/><path d="M645.716,1985.939a22.476,22.476,0,1,1,3.646-36.3c.006.006.013.006.019.019q.7.608,1.349,1.292c.006.006.012.019.025.025a42.585,42.585,0,0,0,49.962,5.388,41.939,41.939,0,0,0,7.511-5.513l.044-.044c.393-.4.8-.793,1.224-1.161.006-.012.019-.019.025-.025a22.478,22.478,0,1,1-.019,33.7c-.006-.006-.012-.006-.019-.019q-.7-.608-1.349-1.292c-.006-.006-.012-.019-.025-.025a42.585,42.585,0,0,0-49.962-5.388,41.955,41.955,0,0,0-7.511,5.513l-.044.044c-.393.4-.8.793-1.224,1.161-.006.012-.019.019-.025.025A22.6,22.6,0,0,1,645.716,1985.939Z" transform="translate(-544.568 -1944)" fill="aqua"/></g><g transform="translate(753.123 2255.338)"><path d="M907.843,2068.7a4.278,4.278,0,0,1-4.841-4.841v-77.511a4.907,4.907,0,0,1,1.21-3.663,5.015,5.015,0,0,1,3.631-1.178,4.9,4.9,0,0,1,3.6,1.178,5,5,0,0,1,1.177,3.663v77.511a5.018,5.018,0,0,1-1.177,3.631A4.813,4.813,0,0,1,907.843,2068.7Z" transform="translate(-903.002 -1981.426)" fill="#fff"/><path d="M973.109,2068.656q-4.842,0-4.841-4.841v-77.578q0-4.839,4.841-4.84a6.2,6.2,0,0,1,5.3,3.14l31.462,47.554-2.093.327,31.594-47.881a6.426,6.426,0,0,1,5.822-3.14q3.989,0,3.99,4.84v77.578q0,4.842-4.775,4.841-4.842,0-4.841-4.841v-67.962l2.944.981-28.389,42.321a6.659,6.659,0,0,1-5.822,3.074q-2.748,0-4.84-3.074l-28.389-42.321,2.813.85v66.13Q977.883,2068.658,973.109,2068.656Z" transform="translate(-927.518 -1981.386)" fill="#fff"/><path d="M1152.567,2068.656q-4.842,0-4.841-4.841v-77.578q0-4.839,4.841-4.84h30.612q11.708,0,17.857,6.182t6.149,17.889v3.925q0,11.71-6.149,17.857t-17.857,6.149h-25.838v30.416Q1157.341,2068.658,1152.567,2068.656Zm4.774-44.872h25.838q7.717,0,11.054-3.336t3.336-11.054v-3.925q0-7.718-3.336-11.087t-11.054-3.368h-25.838Z" transform="translate(-994.928 -1981.386)" fill="#fff"/><path d="M1307.852,2068.656q-14.718,0-21.684-6.966t-6.966-21.683v-53.769a4.35,4.35,0,0,1,4.841-4.84,4.759,4.759,0,0,1,3.565,1.243,4.952,4.952,0,0,1,1.211,3.6v53.769q0,7.2,1.766,11.348a10.8,10.8,0,0,0,5.919,5.92q4.154,1.767,11.349,1.766h15.7q7.129,0,11.283-1.766a10.8,10.8,0,0,0,5.92-5.92q1.766-4.152,1.766-11.348v-53.769a4.351,4.351,0,0,1,4.841-4.84,4.761,4.761,0,0,1,3.565,1.243,4.955,4.955,0,0,1,1.21,3.6v53.769q0,14.717-6.934,21.683t-21.651,6.966Z" transform="translate(-1044.315 -1981.386)" fill="#fff"/><path d="M1449.673,2068.656q-4.842,0-4.841-4.841v-77.578q0-4.839,4.841-4.84,4.774,0,4.775,4.84v72.8h37.415q4.84,0,4.841,4.775,0,4.842-4.841,4.841Z" transform="translate(-1106.532 -1981.386)" fill="#fff"/><path d="M1583.5,2068.591q-11.317,0-17.367-4.743t-7.228-14.75a4.461,4.461,0,0,1,1.079-3.7,4.912,4.912,0,0,1,3.631-1.276,4.679,4.679,0,0,1,3.5,1.178,6.164,6.164,0,0,1,1.472,3.532q.785,5.756,4.153,7.948t10.76,2.191h18.838q8.764,0,12-3.237t3.238-11.807q0-8.7-3.3-12t-11.938-3.3h-16.746q-12.1,0-17.889-5.822t-5.789-17.857q0-12.034,5.723-17.792t17.825-5.756h16.484q10.6,0,16.32,4.48t6.9,13.835a4.309,4.309,0,0,1-1.014,3.7,5,5,0,0,1-3.7,1.276,4.618,4.618,0,0,1-3.467-1.21,5.8,5.8,0,0,1-1.438-3.5q-.786-5.036-3.892-7t-9.713-1.962H1585.46q-8.112,0-11.022,2.976t-2.911,10.957q0,7.981,2.977,11.022t11.087,3.042h16.746q12.689,0,18.773,6.083t6.083,18.838q0,12.691-6.083,18.675t-18.773,5.985Z" transform="translate(-1149.371 -1981.386)" fill="aqua"/><path d="M1718.7,2068.656q-4.842,0-4.841-4.841v-77.578q0-4.839,4.841-4.84h47.619q4.84,0,4.841,4.84,0,4.776-4.841,4.776h-42.844v28.781h27.406q4.84,0,4.841,4.774,0,4.842-4.841,4.841h-27.406v29.631h42.844q4.84,0,4.841,4.775,0,4.842-4.841,4.841Z" transform="translate(-1207.589 -1981.386)" fill="aqua"/><path d="M1866.324,2068.649q-3.009,0-4.643-3.663l-32.837-76.727a4.177,4.177,0,0,1,2.486-6.279q4.448-1.962,6.279,2.486l31.266,73h-3.335l30.677-73q1.766-4.448,6.345-2.486a4.72,4.72,0,0,1,2.715,2.519,5.1,5.1,0,0,1-.229,3.76l-33.1,76.727q-1.7,3.665-5.036,3.663Z" transform="translate(-1250.554 -1981.379)" fill="aqua"/><path d="M1989.933,2068.656q-4.842,0-4.841-4.841v-77.578q0-4.839,4.841-4.84h47.619q4.84,0,4.841,4.84,0,4.776-4.841,4.776h-42.844v28.781h27.407q4.84,0,4.841,4.774,0,4.842-4.841,4.841h-27.407v29.631h42.844q4.84,0,4.841,4.775,0,4.842-4.841,4.841Z" transform="translate(-1309.471 -1981.386)" fill="aqua"/><path d="M2121.095,2068.656q-4.842,0-4.841-4.841v-77.578q0-4.839,4.841-4.84,2.484,0,4.84,2.878l53.506,68.878h-2.354v-66.916q0-4.839,4.84-4.84,4.774,0,4.775,4.84v77.578q0,4.842-4.775,4.841-2.616,0-4.84-2.878l-53.572-68.877h2.354v66.915Q2125.869,2068.658,2121.095,2068.656Z" transform="translate(-1358.74 -1981.386)" fill="aqua"/></g></g></svg>